<svg xmlns="http://www.w3.org/2000/svg" xmlns:xlink="http://www.w3.org/1999/xlink" width="874.95" height="818.9" viewBox="0 0 231.5 216.67"><defs><linearGradient id="a"><stop offset="0" style="stop-color:#e7bb7a;stop-opacity:1"/><stop offset="1" style="stop-color:#e7bb7a;stop-opacity:0"/></linearGradient><linearGradient xlink:href="#a" id="b" x1="389.35" x2="387.92" y1="404.03" y2="409.86" gradientUnits="userSpaceOnUse"/></defs><g transform="translate(-301.6 -356.44)"><ellipse cx="417.32" cy="464.1" rx="111.5" ry="104.28" style="display:inline;fill:#387f7d;fill-opacity:1;stroke:none;stroke-width:5.0955;stroke-dasharray:none;stroke-opacity:1"/><path d="M1546.8 2147.49c-1.22-.18-12.57-2.03-20.17-2.76-7.6-.73-15.55-1.93-16.66-2.34-1.73-.64 1.54-3.47 8.35-10.96 9.07-9.97 17.45-22.32 27.63-37.28 4.14-6.07 15.77-17.33 20.37-21.43 45.02-40.09 61.26-53.44 66.96-57.17 2.49-1.63 6.11-1.6 9.6.56 7.91 4.9 28.07 27.9 28.07 32.22 0 .7-5.26 7.7-11.36 15.52-14.06 18.07-37.16 49.54-48.25 68.24l-8.93 14.87-25.17 1.56c-14.28.88-29.23-.85-30.44-1.03z" style="fill:#f6d9a8;fill-opacity:1;stroke:none;stroke-width:20.8791;stroke-dasharray:none;stroke-opacity:1" transform="scale(.2646)"/><path d="M1440.4 2132.73c-74.53-10.34-129.8-62.08-179.7-114.06-12.3-12.82-39.3-53.02-38.18-54.14.44-.44 14.28-2.04 26.71-3.89 58.55-8.72 94.96-23.6 117.6-47.81 22.04-23.55 30.54-46.43 42.93-113.93 7.69-41.89 5.85-43.68-.24-44.55-4.08-.57-4.97-2.1-4.97-8.47 0-13.32 7.26-47.21 25.55-84.03l4.44-12.27-13.2 2.7c-6.03 1.24-.5-6.3-.5-8.8 0-5.62 22.38-43.02 29.85-52.83 7.48-9.8 7.54-8.77 8.58-8.77.8 0 2.19-1.06 4.42-2.7 3.85-2.81 3.17-2.4-5.72-20.69-12.67-26.05-17.3-49.98-13.8-70.4 2.5-14.65 7.07-30.35 14.93-43.14 11.29-18.38 27.3-30.97 36.19-27.55 2.88 1.1 3.15 12.42 3.15 62.51 0 62.86-.01 71.4 8.23 70.22 3.25-.47 6.55-9.14 9.08-16.02 6.07-16.47 25.05-28.58 42.55-26.28l11.18-1.14 2.72 7.1-2.75 11 15.03-4.54c18.72-5.65 33.47 1.2 46.18 15.26 8.8 9.73 9.96 13.22 5.16 17.2-1.82 1.51-2.93 3.4-9.23 3.43-1.9 0-9.4-.3-11.78-.51-1.31-.13-2.57-.65-3.65-.78-1.94-.23-3.06-.85-4.21-.82-1.16.03-4.94-1.88-2.56.75 4.06 4.5 7.72 9.32 9.22 13.16 3.38 8.67-1.21 15.77-10.7 15.34-2.27-.1-6.12-.6-8.95-1.76-.93-.38-2.86-1.56-3.86-1.9-8.42-2.94-9-3.33-5.68 2.87 1.46 2.72 3.92 4.96 6.66 6.78 7.67 5.09 19.03 6.36 28.27 1.58 2.25-1.17 4.19-5.4 7.22-4.96 5.3.76 13.54 8.5 29.87 19.88 24.57 17.1 52.15 42.97 52 47.16-.05 1.04-7.78 3.16-12.8 7.17l-8.82 7.04-13.19-5.9c-12.43-5.57-18.34-5.85-19.25 2.09-.84 7.22 9.95 14.9 21.17 18.6 8.84 2.92 11.59 12.29 7.63 24.29-5.24 15.86-25.26 17.35-42.82-.68-11.08-11.37-16.32-15.32-17.85-7.37-1.02 5.33 2.9 10.55 8.29 16.14 6.17 6.42 14.55 13 24.75 15.57 7.71 1.94 22.34-.37 29.68-2.22 14.28-3.6 13.01.15 6.32 6.04-7.94 6.99-22.78 14.55-35.1 11.79-5.23-1.18-15.44-2.44-23.12-3.87-15.12-2.8-23.75-10.05-45.2-9.26-53.68 1.97-57.6 1.9-71.66-4.63-7.21-3.35-16.96-12.34-22.21-16.65-3.03-2.48-5.14-3.9-6.25-4.95-.91-.85-1.05-1.6-1.34-1.32-.29.29 1.26 1 1.26 4.4 0 3.39 11.92 20.92 21.23 27.08 12.54 8.3 25.13 10.77 44.63 11.33l20.53.58 2 46.64c1.08 25.21 5.2 73.14 5.11 107.17-.15 54.82-1.82 67.2-6.09 87.14-13.03 60.86-34.27 121.31-76.6 142.35l-11.6 7.7zm105.2-491.18c1.3-3.74 2.85-8.8 2.85-11.6 0-2.79.14-6.23 2.23-7.4 3.4-1.9 6.78 1.56 3.95-3.73-3.22-6.03-12.79-12.84-18.77-12.84-17.6 0-24.74 20.73-13.37 38.1 6.33 9.69 19.18 8.72 23.1-2.53zm-66.5-97.1c-1.05-8.2-4.05-29.02-3.79-49.46.54-42.6 6.17-44.14-5.88-20.26-7.08 14.04-9.22 14.63-9.18 33.2.04 16.78 1.33 21.4 6.03 31.6 11.1 24.13 15.6 26.48 12.82 4.92z" style="fill:#f6d9a8;fill-opacity:1;stroke:none;stroke-width:41.7583;stroke-dasharray:none;stroke-opacity:1" transform="scale(.2646)"/><path d="M1610.32 1506.16c-3.65-1.67-10.95-1.62-15.5-1.67-3.84-.05-5.17.38-5.83-.32-.66-.69 2.07-3.08 4.7-8.17 1.8-3.47 7.35-22.67 11.75-39.5 4.4-16.82 8.59-33.57 9.55-34.58 2.87-3.04 13.62 9.42 16.21 19.71 1.61 6.4 2.9 15.71 3.13 25.48.27 11.35-1.58 23.14-3.71 30.31-2.61 8.8-3.68 13.3-6.94 13.9-1.38.26-10.52-3.86-13.36-5.16z" style="fill:#eebd7e;fill-opacity:1;stroke:none;stroke-width:41.7583;stroke-dasharray:none;stroke-opacity:1" transform="scale(.2646)"/><path d="M448.48 452.31c-.24-.24 0-1.53.03-3.56.05-3.45-2.3-1.57.13-3.66 1.43-1.23 4.89-4.35 5.15-4.09.62.63 1.45 4.56.87 7.54-.36 1.9-1.48 3.18-1.96 3.9-1.14 1.7-3.17.93-4.22-.13z" style="fill:#f6d9a8;fill-opacity:1;stroke:none;stroke-width:12.4963;stroke-dasharray:none;stroke-opacity:1"/><path d="m439.64 532.72-2.9-2.77 1.73-1.15a23.13 23.13 0 0 1 7.5-3.31c2.9-.75 4.47-.8 5.97-.16l1.1.46-.61.8c-1.18 1.49-9.36 8.96-9.77 8.91a59.4 59.4 0 0 1-3.02-2.78z" style="fill:#6a4f38;fill-opacity:1;stroke:none;stroke-width:5.91053;stroke-dasharray:none;stroke-opacity:1"/><path d="M397.29 457.75s2.56 4.25 3.77 5.74a19.12 19.12 0 0 0 3.26 3.25 55.18 55.18 0 0 0 6.71 4.8 45.47 45.47 0 0 0 5.43 2.44l-.03-11.5-3.54.08s-2.85.04-4.44-.16c-1.6-.2-3.55-.43-5-.96a22.55 22.55 0 0 1-3.84-1.89c-1.01-.6-2.32-1.8-2.32-1.8z" style="fill:#e7bb7a;fill-opacity:1;stroke:none;stroke-width:4.99999;stroke-dasharray:none;stroke-opacity:1"/><path d="M463.96 532.74a36.48 36.48 0 0 1-6.45-2.6c-.29-.24-.22-.23-.02-1.3.5-2.76.24-4.07-1.47-5.58-.9-.8-2.85-1.74-4.05-1.96-1.16-.22-5.8-.08-7.26.22-1.54.32-3.53 1-5.73 1.99l-1.9.85-4.1-1.35-3.36-1.29-.16-19.78c-.1-10.82.08-19.47.15-19.57.1-.16.77-.1 5.58 1.11l7.06 1.94-.03 3.41a27.8 27.8 0 0 0 .19 3.81c.1.27 0 .16 6.32 1.83 2.24.59 3.6.88 3.7.79.08-.08.18-1.6.22-3.64.04-1.92.12-3.54.17-3.59.05-.05 3.02.62 6.6 1.5l6.5 1.6v11.41c0 8.98-.04 11.45-.19 11.55-.53.34-6.26-.07-9.16-.65a40.2 40.2 0 0 1-9.32-2.82c-2.41-1.12-2.6-1.9-2.77-1.46-.18.46.15 1.1 1.49 2.36 2 1.89 4.77 3.45 7.97 4.66a34.21 34.21 0 0 0 8.94 2.12l2.99.28.01 6.32c.01 6.4-.04 8.13-.41 8.19-.13.01-.8-.14-1.51-.35z" style="display:inline;fill:#cd8e3b;fill-opacity:1;stroke:none;stroke-width:2.8382;stroke-dasharray:none;stroke-opacity:1"/><path d="m458.55 471.56-23.85 8.23 12.07 3.09 23.29-8.61z" style="fill:#dca34c;fill-opacity:1;stroke:none;stroke-width:4.99999;stroke-dasharray:none;stroke-opacity:1"/><path d="m399.25 566.88 11.13 1.3s2.78-4.7 4.87-10.42c2.1-5.72 3.52-12.5 3.17-12.3-.65.37-7 5.64-7 5.64l-5.04 7.52z" style="fill:#e7bb7a;fill-opacity:1;stroke:none;stroke-width:4.99999;stroke-dasharray:none;stroke-opacity:1"/><path d="M1774.86 2010.72c-.18-.63-.04-12.9-.04-27.23l.33-26.4 5.1-1.17c6.86-1.6 17.33-4.85 26.8-9.51 9.2-4.53 22.12-16.07 25.99-22.63 2.63-4.46 4.59-10.42 3.1-11.65-.8-.66-2.99.89-10.62 6.66-7.53 5.7-13.16 9.75-19.7 12.92-9.11 4.41-28.32 10.29-29.46 9.14-.45-.44-.9-81.89-.47-84.25.24-1.33 1.05-1.12 3.27-2 1.44-.55 8.12-3.45 14.59-5.98 19.94-7.8 72.78-27.8 73.48-27.8.5 0 .56 3.06.89 11.12.55 13.66 1.32 121.37.76 125.56l-1.5 10-29.81 15.51c-27.2 14.16-58.5 28.79-60.7 29.34-1.04.26-1.76-.67-2.01-1.63zm70.8-79.22c4.95-3.43 8.5-16.18 8.94-25.12.43-8.93.53-6.39-.5-7.94-1.02-1.54-1.64-2.93-3.37-3.76-1.72-.84-3.29-1.09-6.5-.81-9.44.8-17.57 5.45-20.35 11.55-1.13 2.48-.64 2.18 5.33.34 4.46-1.37 5.7-2.04 9.77-2.06 4.08-.01 5.87.64 6.75 1.73 1.86 2.3.9 10.26-2.2 20.33-.77 2.54-1.94 5.72-2.13 6.61-.33 1.53.17 1 1.47 1 .76 0 1.74-1.15 2.79-1.87z" style="fill:#e2a94f;fill-opacity:1;stroke:none;stroke-width:9.44882;stroke-dasharray:none;stroke-opacity:1" transform="scale(.2646)"/><path d="m475.95 475.3-23.94 9.35 16.09 3.84 23.2-9.26z" style="fill:#dca34c;fill-opacity:1;stroke:none;stroke-width:4.99999;stroke-dasharray:none;stroke-opacity:1"/><path d="m321.89 519.55 4.95 6.54s16.66-2.94 24.92-6.44c8.27-3.49 15.7-6.75 20.55-14.78 4.86-8.03 7.15-30.7 7.15-30.7l1.08-15.99.88-8.5 1.13-13.2s.07-.26.38-3.62c.31-3.36 4.72-15.65 4.72-15.65l-3.46 2.94-4.77 7.37-3.28 6.3-1.17 3.6 4.35-.47-4.82 13.07-3.88 14.9 2.62.93-4.86 25.82-7.86 13.47-15.53 9.35z" style="fill:#e7bb7a;fill-opacity:1;stroke:none;stroke-width:4.99999;stroke-dasharray:none;stroke-opacity:1"/><path d="M395.35 374.78c-1.58-.41-5.19 1.9-8.03 5.51-2.85 3.62-5.51 10.16-5.66 16.72-.15 6.55 5.62 20.3 5.62 20.3s10.61-7.63 10.1-7.8c-.52-.18-.85-14.76-.6-21.42.27-6.67.16-12.9-1.43-13.3z" style="fill:url(#b);fill-opacity:1;stroke:none;stroke-width:4.99999;stroke-dasharray:none;stroke-opacity:1"/><ellipse cx="417.36" cy="464.77" rx="113.25" ry="105.83" style="display:inline;fill:none;stroke:#4c3221;stroke-width:5;stroke-dasharray:none;stroke-opacity:1"/><path d="M423.58 567.82c2.54-4.46 11.7-17.46 15.8-22.4a22.34 22.34 0 0 0 2.27-3.1c.28-.87-1.4-3.32-4.2-6.15-2.97-3-3.75-3.5-4.66-3.01-.94.5-6.42 5.17-11.9 10.12-2.7 2.45-5.92 5.26-7.16 6.24-1.91 1.5-2.57 2.25-4.33 4.93-1.14 1.74-2.97 4.3-4.06 5.7-2.76 3.55-7.86 8.9-8.57 8.91-.32 0-2.25-.25-3.35-.48-.86-.17-2.55-.68-2.55-.68l2.15-1.62c11.84-8.92 20.84-26.1 23.5-44.83 1.11-7.82 1.4-20.4.74-31.57-.7-11.79-.86-15.66-.88-21.34l-.03-5.99H412c-5.23 0-7.98-.54-11.27-2.25-3.38-1.76-6.15-4.94-7.13-8.17l-.37-1.23 2.26 1.81c4.24 3.43 7.56 4.93 12.08 5.48 2.7.33 4.89.2 9.65-.58 1.7-.28 3.9-.5 4.86-.51 2.37 0 5.65.82 8.51 2.14 5.05 2.34 8.27 2.86 11.84 1.92a11.42 11.42 0 0 0 5.3-2.87c.65-.7.65-.7.12-1.1-.3-.22-.73-.33-.95-.26a176 176 0 0 0-1.98.7c-2.17.78-5.42.8-7.57.04-3.16-1.12-6.46-3.78-7.7-6.2-1-1.97-.57-3.82.9-3.82.77 0 1.28.42 2.03 1.68.33.56 1.22 1.55 1.98 2.22 5.48 4.79 10.73 3.8 10.72-2.03 0-3.23-.16-3.65-1.58-4.18-2.18-.8-4.35-2.07-5.17-3-1.52-1.73-.85-4.14 1.15-4.13.5 0 2.11.6 3.68 1.35l2.8 1.34 1.05-.95c.94-.85 3-1.98 4.37-2.4.41-.13.24-.45-1.15-2.16-.9-1.1-2.34-2.63-3.19-3.4a138.51 138.51 0 0 0-11.94-8.9 84.94 84.94 0 0 1-4.15-2.89c-.77-.63-.79-.64-1.35-.12-1.53 1.4-4.57 2.03-6.83 1.42a7.75 7.75 0 0 1-3.95-2.95c-.8-1.37-.29-1.55 1.73-.6 2.29 1.09 4.16 1.13 5.34.13 1.68-1.4 1.27-3.4-1.27-6.14-.8-.85-1.06-1.28-.72-1.15 2.8 1.04 6.76 1.2 8.1.32 1.39-.91 1.23-2.42-.47-4.34a14.14 14.14 0 0 0-6.12-3.9c-2.64-.85-6.38-.71-8.92.33-.95.4-1.78.67-1.84.62-.05-.06.08-.45.3-.88.71-1.38.83-2.7.32-3.5-.46-.69-.52-.7-2.66-.57-3.41.22-6.45 1.76-10 5.09-1.56 1.45-1.74 1.73-2.02 3.18-.4 2.02-1.28 3.38-2.27 3.5-.65.07-.8-.07-1.25-1.09-1.03-2.32-1.16-5-.96-18.87.2-13.8.14-14.76-.96-15.36-.93-.5-3.23.4-5.02 1.97-1.43 1.25-4.02 4.84-5.22 7.21a35.3 35.3 0 0 0-3 9.7c-.83 6.2.9 13.52 4.66 19.79 1.61 2.68 1.68 3.68.3 4.12-.48.16-1.24.64-1.7 1.08-2.62 2.5-8.99 13.68-9.82 17.23-.16.67-.12.75.3.58 1.16-.44 3.62-.97 3.86-.82.28.17.1.69-1.98 5.58a91.64 91.64 0 0 0-5.15 17.18c-.45 2.4-.55 4.78-.22 5 .11.06.69-.05 1.28-.26.6-.2 1.17-.38 1.28-.38 1.14-.02-3.54 24.4-6.04 31.5a31.04 31.04 0 0 1-7.56 12.14 27.67 27.67 0 0 1-8.19 5.72c-6.44 3.17-13.86 5.1-25.53 6.63-3.61.48-4.76.66-4.76.27 0-.16-.88-1.08-1.47-2.1a5.05 5.05 0 0 1-.69-2.03c0-.18 1.3-.46 6.01-1 11.6-1.33 18.3-3 24.56-6.14 7.93-3.96 12.2-9.59 14.88-19.55a272.2 272.2 0 0 0 2.36-10.94c1.5-7.5 1.61-8.31 1.2-8.44a4.22 4.22 0 0 1-2.16-1.98c-.4-1.06-.33-3.97.17-6.67.98-5.29 3.91-16.06 4.89-17.96.34-.67.32-.73-.43-1.04-1.11-.46-1.75-2.2-1.52-4.16.52-4.42 5.99-15.29 10.69-21.23l1.04-1.32-1.3-2.56a31.51 31.51 0 0 1-3.7-16.33c.46-12.19 8.06-23.72 17.14-26.05 1.26-.32 1.89-.35 2.67-.14a5.19 5.19 0 0 1 3.09 3c.2.62.34 5.26.42 13.81.07 7.09.18 12.89.26 12.89.07 0 .7-.5 1.38-1.1 1.62-1.43 5.69-3.42 7.74-3.8 1.55-.27 3.7-.2 4.88.17.49.16.67-.06 1.4-1.7.98-2.19 2.6-7.48 3.97-12.94 1.11-4.46 1.58-5.79 2.5-7.03a4.28 4.28 0 0 1 3.84-1.93c6.18 0 10.47 8.47 9.9 19.53-.2 4.05-.99 7.86-2.06 10.03l-.81 1.65 1.1 1.2c1.54 1.65 2.31 3.08 2.64 4.88.5 2.82-.48 4.71-3.41 6.52-.63.4-1.15.77-1.15.84 0 .07 1.27.98 2.83 2.02 7.07 4.75 12.37 8.8 15.42 11.81 6.17 6.08 8.65 11.92 7.68 18.1-.6 3.9-2.03 6.66-4.22 8.21a6.14 6.14 0 0 0-1.99 2.49c-2.17 4.4-7.83 7.43-13.9 7.43-2.37 0-6.43-1.1-9.54-2.57-2.94-1.4-5.17-2.01-7.3-2.02h-1.45l.17 5.46c.1 3.01.5 10.39.88 16.4.8 12.55.98 27.72.4 33.32a113.4 113.4 0 0 1-3.79 19.96 13.48 13.48 0 0 0-.67 2.9c.07.11.4-.04.72-.35.33-.3 2.23-1.81 4.24-3.35 4.79-3.68 10.6-8.5 10.44-8.67-.07-.07-1.57-.64-3.32-1.26-2.4-.85-3.27-1.3-3.5-1.75-.41-.83-.22-44.17.2-45.03.37-.74 1.23-1.1 6.97-2.93 2.6-.83 9.17-2.96 14.61-4.73 5.44-1.77 10.23-3.22 10.64-3.22.78 0 11.27 2.14 23.86 4.87 15.62 3.4 14.63 3.14 15.45 4.04l.74.8v19.82l.22 20.02s.08 2.87-.33 3.64c-.4.78-.22.62-.7 1.26-.26.34-.82.8-1.32 1.17-.46.34-.57.43-.88.61-8.76 5.1-25.66 13.11-27.35 13.3-.82.09-2.3-.3-6.31-1.65l-5.24-1.76-.4.6c-.81 1.22-5.37 5.54-7.23 6.83-3.01 2.11-10.15 11.12-15.49 19.57-4.26 6.73-3.87 7.25-6.85 7.75-1.34.23-2.95 0-3.23.09-.43.13-.4-.17.25-1.3zm22.92-35.63a108.1 108.1 0 0 0 4.9-4.65l1.4-1.5-.97-.5c-2.8-1.45-10.08.56-14.19 3.93l-.76.62 1.73 1.39c.96.76 2.21 1.94 2.79 2.62a5.02 5.02 0 0 0 1.32 1.24c.15 0 1.85-1.42 3.78-3.15zm19.3-6.53v-6.98l-2.1-.19c-6.82-.6-14.7-3.68-18.08-7.06-1.42-1.42-1.74-2.15-1.04-2.42.2-.08 1.45.4 2.76 1.06a39.88 39.88 0 0 0 9.19 3.29c2.63.54 7.13.94 8.34.75l.92-.15V491.45l-6.27-1.57a501.8 501.8 0 0 0-6.5-1.6c-.1 0-.2 1.66-.2 3.7 0 3.38-.05 3.71-.47 3.59-.25-.08-2.57-.7-5.16-1.38-2.58-.68-4.8-1.3-4.92-1.37-.12-.08-.22-1.75-.22-3.73v-3.58l-6-1.53c-3.31-.84-6.1-1.52-6.22-1.52-.1 0-.17 8.76-.13 19.47l.07 19.47 4 1.34 4 1.33 2.11-.97c3.59-1.64 5.92-2.18 9.45-2.18 2.86 0 3.24.05 4.8.77 2.82 1.3 4.03 3.22 3.75 5.93-.07.76-.22 1.65-.32 1.97-.18.56.05.67 3.55 1.8 2.05.66 3.95 1.22 4.2 1.23.45.03.48-.48.48-6.96zm16.3.88c6.39-3.2 11.77-5.95 11.96-6.1.43-.35.36-38.7-.07-38.6-.43.1-20.03 7.56-22.13 8.42l-1.89.78-.07 11.23c-.05 9.08 0 11.22.28 11.22.9 0 5.4-1.5 7.38-2.44 1.2-.58 3.2-1.81 4.42-2.75 2.61-1.98 3.57-2.63 3.85-2.63.4 0 .18 1.74-.36 2.87-.84 1.73-4.4 4.93-6.98 6.27-2.36 1.23-5.96 2.56-7.7 2.84l-1.09.18-.07 7.27c-.07 6.73-.04 7.28.39 7.28.25 0 5.69-2.63 12.08-5.84zm5.01-15.14c0-.11.3-1.15.68-2.3.71-2.26.87-4.48.34-5-.48-.49-2.73-.4-4.24.18-.74.28-1.4.45-1.48.37-.31-.3.74-1.73 1.74-2.36 1.33-.85 3.62-1.46 4.78-1.28.52.07 1.12.42 1.45.84.5.62.55.96.42 2.6-.18 2.41-1.14 5.34-2.1 6.36-.67.73-1.6 1.07-1.59.59zm-9.23-27.33c12.25-4.56 11.66-4.33 11.66-4.57 0-.21-13.06-3.3-14.05-3.3-.36-.01-4.3 1.33-8.76 2.99l-10.79 4c-1.48.54-2.8 1.08-2.93 1.19-.13.1.23.29.8.4.98.17 13.63 2.97 13.82 3.04.04.02 4.66-1.67 10.25-3.75zm-23.7-4.4 11-3.97c1.82-.65 3.3-1.26 3.3-1.35 0-.1-2.22-.61-4.95-1.15l-4.96-.98-8.06 2.7a575.86 575.86 0 0 1-11.3 3.66 29.25 29.25 0 0 0-3.46 1.19c-.13.11.96.47 2.42.8 1.47.33 3.81.87 5.22 1.21 1.41.34 2.69.63 2.84.65.15.01 3.73-1.23 7.96-2.76zm-1.95-26.77c.77-.54 1.83-2.37 2.22-3.83.39-1.5.4-4.25.02-6.06-.48-2.3-.59-2.34-2.03-.8-.7.76-1.86 1.75-2.58 2.2l-1.3.84.14 1.8c.08 1 .01 2.54-.16 3.43-.3 1.6-.3 1.63.45 2.23.88.71 2.37.8 3.24.19zm-21.79-54.09c1.6-3.15 2.37-10.8 1.5-15.08-.24-1.23-.7-2.93-1.01-3.77-.63-1.67-2.27-3.55-3.12-3.55-.63 0-.94.98-3.14 9.85-1.55 6.3-2.48 9.1-3.53 10.7l-.64.97 2.63.13c2.24.1 2.9.25 4.37.95.95.46 1.88.84 2.06.86.18 0 .58-.47.88-1.06zm-26.72 37.81c-1.76-.94-2.95-4.5-2.43-7.26.34-1.78.85-2.78 1.88-3.65 2.6-2.18 6.34-1.26 7.97 1.96.38.74.68 1.38.68 1.42 0 .05-.37.08-.83.08-.83 0-.84.01-.95 1.61-.14 1.88-.72 4.07-1.3 4.9-.97 1.37-3.37 1.82-5.02.94zm-13.59-24.68c-.97-1.04-2.5-4.07-3.43-6.79-.57-1.66-.64-2.37-.64-5.8.01-4.45.35-6.07 2-9.58 1.1-2.36 2.26-3.91 2.92-3.91.45 0 .45.17-.22 8.1-.38 4.44-.17 9.83.55 14.16.3 1.78.54 3.57.54 3.98 0 1.02-.67.96-1.72-.16z" style="display:inline;fill:#4c3221;fill-opacity:1;stroke-width:.202376"/></g></svg>